# xmcd
#
# Track frame offsets:
#  150
#  13710
#  28437
#  49522
#  64732
#  82252
#  102555
#  123272
#
# Disc length: 2009 seconds
#
# Revision: 1
# Processed by: cddbd v1.5.1PL2 Copyright (c) Steve Scherf et al.
# Submitted via: Collectorz.com_Music_Collector 6.9
#
DISCID=6c07d708
DTITLE=Various Artist - Kool Tour Compliation
DYEAR=2005
DGENRE=Jazz
TTITLE0=Busta Rhymes - Turn Me Up Some
TTITLE1=De La Soul - Verbal Clap
TTITLE2=Common - I Used to Love H.E.R.
TTITLE3=The Roots - Do You Want More?!!!??!
TTITLE4=Busta Rhymes - Genesis
TTITLE5=Floetry - Say Yes
TTITLE6=The Roots - Proceed
TTITLE7=Miri Ben-Ari - Sahara
EXTD=
EXTT0=
EXTT1=
EXTT2=
EXTT3=
EXTT4=
EXTT5=
EXTT6=
EXTT7=
PLAYORDER=
